<?xml version="1.0" standalone="no"?>
<!DOCTYPE svg PUBLIC "-//W3C//DTD SVG 20010904//EN"
 "http://www.w3.org/TR/2001/REC-SVG-20010904/DTD/svg10.dtd">
<svg version="1.0" xmlns="http://www.w3.org/2000/svg"
 width="666.000000pt" height="666.000000pt" viewBox="0 0 666.000000 666.000000"
 preserveAspectRatio="xMidYMid meet">
<metadata>
Created by potrace 1.14, written by Peter Selinger 2001-2017
</metadata>
<g transform="translate(0.000000,666.000000) scale(0.100000,-0.100000)"
fill="#000000" stroke="none">
<path d="M5188 6271 c-12 -14 -13 -21 -5 -25 8 -3 8 -5 1 -5 -8 -1 -8 -13 -1
-46 14 -62 28 -46 26 31 -1 35 -2 64 -3 64 -1 0 -9 -9 -18 -19z"/>
<path d="M3988 5161 c-2 -5 -31 -11 -64 -13 -34 -3 -67 -8 -72 -12 -11 -7 -12
-46 -2 -46 11 0 50 -40 50 -51 0 -10 -125 -8 -145 2 -5 3 -26 6 -46 8 -37 2
-74 8 -74 11 0 3 -73 11 -130 14 -55 3 -95 13 -95 24 0 4 -12 8 -27 9 -60 4
-83 8 -83 16 0 4 -11 7 -24 7 -14 0 -28 5 -31 10 -5 8 -11 7 -21 -1 -8 -6 -14
-8 -14 -3 0 17 -24 -17 -27 -38 -2 -13 -13 -31 -25 -41 -26 -21 -32 -50 -18
-77 8 -15 6 -22 -12 -32 -13 -7 -27 -11 -32 -10 -4 2 -14 -2 -22 -9 -8 -6 -20
-9 -28 -6 -8 3 -17 3 -20 0 -8 -8 -69 -8 -89 0 -10 4 -17 2 -17 -3 0 -5 -13
-5 -30 0 -17 5 -32 5 -35 0 -3 -5 -16 -6 -28 -1 -12 5 -30 7 -39 6 -10 -2 -20
0 -23 5 -2 4 -16 6 -30 5 -14 -2 -27 1 -31 6 -3 5 -57 9 -119 9 -122 0 -189
-18 -178 -47 7 -19 -24 -41 -53 -37 -13 1 -24 -1 -24 -5 0 -4 -24 -7 -52 -6
-69 1 -140 -12 -150 -28 -4 -6 -8 -7 -8 -2 -1 6 -14 -5 -30 -24 -22 -26 -27
-38 -19 -47 6 -7 8 -18 4 -23 -3 -6 6 -13 19 -17 21 -5 24 -9 16 -24 -6 -10
-10 -27 -10 -38 0 -10 -6 -19 -12 -19 -7 -1 -31 -4 -53 -7 -22 -4 -58 -8 -80
-10 -50 -3 -153 -25 -180 -37 -11 -5 -32 -10 -47 -11 -16 -1 -28 -6 -28 -10 0
-4 -13 -8 -28 -8 -21 0 -32 -7 -40 -25 -7 -14 -12 -28 -12 -31 0 -12 96 -36
148 -36 32 0 27 -22 -13 -65 -19 -20 -35 -40 -35 -44 0 -4 -14 -21 -30 -37
-17 -17 -30 -35 -30 -41 0 -6 -4 -11 -9 -11 -5 0 -8 -11 -5 -24 5 -27 34 -86
34 -71 1 12 31 -65 32 -82 1 -7 4 -13 8 -13 4 0 7 -6 8 -12 0 -7 3 -44 7 -83
6 -68 8 -86 19 -132 4 -13 8 -32 11 -43 9 -41 29 -90 38 -90 4 0 6 -4 3 -9 -3
-5 8 -15 25 -23 36 -18 107 -9 121 16 5 8 15 13 23 10 14 -6 50 39 42 53 -3 5
3 25 13 46 10 20 13 34 7 30 -8 -5 -8 -2 0 9 7 8 9 19 5 23 -4 5 -1 5 6 1 6
-4 12 -4 13 1 3 31 10 47 29 62 12 9 30 24 38 34 9 9 22 17 29 17 7 0 13 4 13
8 0 9 44 33 67 38 7 1 16 -3 21 -9 8 -9 10 -272 3 -370 -1 -15 -8 -16 -48 -11
-69 8 -85 -8 -97 -94 -2 -12 1 -25 6 -28 4 -3 5 -11 1 -17 -8 -13 -15 -96 -17
-213 -1 -76 1 -83 29 -117 17 -19 36 -36 43 -36 7 -1 10 -5 7 -11 -3 -5 -3
-10 2 -10 4 0 30 -21 58 -47 42 -40 50 -54 55 -95 4 -26 3 -48 -2 -48 -5 0 -4
-9 2 -19 5 -11 7 -22 2 -25 -4 -2 -6 -24 -4 -48 2 -24 3 -50 3 -58 -2 -51 0
-104 4 -108 3 -3 0 -11 -6 -18 -7 -8 -7 -14 1 -19 7 -4 7 -12 0 -26 -6 -11 -8
-24 -4 -30 3 -6 6 -29 6 -52 -1 -37 21 -93 41 -108 5 -3 9 -10 9 -15 1 -16 25
-44 31 -37 4 3 7 0 7 -8 0 -8 10 -21 21 -29 12 -8 28 -21 35 -28 8 -7 14 -11
14 -9 0 3 14 -8 31 -24 17 -16 38 -29 46 -29 8 0 11 -4 8 -10 -3 -5 -1 -10 4
-10 6 0 22 -10 37 -22 14 -13 28 -21 31 -20 3 2 9 0 12 -5 12 -16 81 -64 81
-56 0 4 5 0 11 -9 5 -10 26 -25 47 -35 37 -18 59 -33 94 -66 10 -10 30 -22 43
-27 14 -5 25 -16 25 -25 0 -8 4 -15 8 -15 5 0 8 -47 8 -105 -1 -58 -3 -105 -6
-105 -3 0 -5 -64 -5 -142 0 -96 -4 -150 -13 -167 -11 -22 -24 -127 -25 -206
-1 -29 -18 -57 -34 -54 -4 1 -10 0 -13 -1 -3 -1 -25 -3 -50 -5 -48 -4 -61 -6
-125 -24 -71 -19 -139 -58 -197 -114 -32 -30 -58 -52 -58 -48 0 3 -6 -1 -13
-9 -7 -8 -21 -21 -32 -28 -11 -7 -31 -20 -45 -29 -57 -37 -192 -237 -173 -257
3 -3 2 -6 -4 -6 -6 0 -21 -33 -34 -73 -26 -83 -27 -88 -30 -136 -2 -20 -7 -44
-12 -55 -7 -13 -6 -16 3 -11 9 5 9 3 2 -11 -5 -11 -10 -68 -10 -127 -1 -59 -4
-113 -8 -119 -4 -7 -3 -8 4 -4 8 5 9 -8 5 -44 l-6 -50 1569 0 1569 0 -1 36
c-1 19 -4 38 -7 40 -2 3 -1 21 3 40 5 19 4 37 -1 40 -5 3 -6 10 -2 17 3 6 6
36 5 66 -1 31 -2 72 -1 91 3 193 0 600 -5 609 -4 6 -3 11 2 11 18 0 -6 72 -35
103 -41 45 -66 66 -87 73 -16 5 -36 19 -70 49 -6 6 -33 21 -61 35 -27 14 -51
28 -53 33 -2 4 -13 7 -23 7 -11 0 -18 4 -14 9 3 5 -12 15 -32 21 -21 7 -42 16
-48 20 -12 8 -127 36 -137 32 -5 -1 -8 2 -8 7 0 6 -8 9 -17 9 -25 -2 -89 21
-131 45 -19 12 -56 21 -86 23 -28 1 -52 3 -53 4 -2 2 -6 3 -10 5 -5 1 -21 7
-36 13 -16 7 -37 12 -47 12 -10 0 -22 5 -25 10 -4 6 -10 8 -14 5 -5 -2 -17 2
-27 10 -10 8 -26 15 -35 15 -9 0 -24 9 -34 20 -10 11 -24 20 -30 20 -16 0 -39
55 -31 75 3 8 2 15 -2 15 -4 0 -7 100 -7 222 0 170 3 225 13 231 7 5 9 13 6
19 -4 6 -3 8 3 5 13 -8 103 58 135 98 12 17 26 33 31 36 5 3 7 8 6 10 -2 2 26
62 60 133 35 71 65 138 66 150 1 12 3 21 4 21 3 0 8 20 14 46 1 10 7 23 13 30
6 8 10 29 10 47 -1 17 2 32 5 32 7 0 27 100 33 165 2 22 5 40 6 40 5 0 14 202
10 220 -1 6 -1 13 0 18 1 4 3 11 4 16 0 5 17 24 37 42 19 19 36 37 37 42 4 20
37 65 44 61 4 -3 8 1 9 8 0 7 3 22 6 33 12 47 18 139 18 272 0 79 3 143 7 143
4 0 4 10 -1 23 -6 14 -5 30 1 41 6 11 6 21 -2 31 -7 8 -7 16 -1 19 14 9 -11
56 -30 56 -9 0 -19 3 -23 8 -4 4 -24 8 -44 8 -21 1 -42 2 -48 3 -7 1 -11 34
-11 95 0 52 -4 99 -7 105 -4 6 -3 11 3 11 10 0 7 31 -4 50 -3 6 -2 10 4 10 6
0 8 6 5 14 -10 25 22 45 60 36 18 -4 39 -11 46 -15 9 -5 11 -4 6 3 -7 12 41
-6 107 -39 20 -11 37 -16 37 -12 0 5 4 3 8 -2 4 -6 29 -21 56 -34 37 -18 55
-22 74 -15 28 10 66 69 58 91 -3 8 -2 12 3 8 14 -8 10 197 -3 214 -9 12 -8 13
2 7 11 -7 12 -4 5 10 -5 11 -8 29 -7 42 0 12 -3 22 -8 22 -5 0 -6 5 -3 10 3 6
2 10 -3 10 -5 0 -9 14 -10 31 0 18 -5 44 -10 58 -6 14 -16 48 -23 74 -6 27
-18 51 -26 54 -7 3 -13 9 -13 14 0 22 -46 109 -57 109 -7 0 -13 3 -13 8 0 14
-47 29 -63 20 -19 -10 -57 26 -57 54 0 10 -5 18 -11 18 -5 0 -7 5 -4 10 3 6 1
10 -5 10 -6 0 -16 12 -23 28 -15 34 -50 63 -96 80 -39 14 -54 7 -107 -45 -37
-37 -70 -36 -161 8 -38 18 -81 33 -98 34 -16 1 -30 3 -30 5 0 1 -16 4 -35 7
-19 2 -42 9 -51 14 -10 5 -19 5 -21 0z"/>
</g>
</svg>
